<?xml version="1.0" encoding="UTF-8" standalone="no"?>
<!-- Created with Inkscape (http://www.inkscape.org/) -->

<svg
   xmlns:osb="http://www.openswatchbook.org/uri/2009/osb"
   xmlns:dc="http://purl.org/dc/elements/1.1/"
   xmlns:cc="http://creativecommons.org/ns#"
   xmlns:rdf="http://www.w3.org/1999/02/22-rdf-syntax-ns#"
   xmlns:svg="http://www.w3.org/2000/svg"
   xmlns="http://www.w3.org/2000/svg"
   xmlns:xlink="http://www.w3.org/1999/xlink"
   xmlns:sodipodi="http://sodipodi.sourceforge.net/DTD/sodipodi-0.dtd"
   xmlns:inkscape="http://www.inkscape.org/namespaces/inkscape"
   version="1.1"
   id="svg3732"
   width="320"
   height="240"
   viewBox="0 0 320 240"
   sodipodi:docname="DOAÇÃO.svg"
   inkscape:version="0.92.4 (5da689c313, 2019-01-14)">
  <metadata
     id="metadata3738">
    <rdf:RDF>
      <cc:Work
         rdf:about="">
        <dc:format>image/svg+xml</dc:format>
        <dc:type
           rdf:resource="http://purl.org/dc/dcmitype/StillImage" />
        <dc:title></dc:title>
      </cc:Work>
    </rdf:RDF>
  </metadata>
  <defs
     id="defs3736">
    <linearGradient
       inkscape:collect="always"
       id="linearGradient6185">
      <stop
         style="stop-color:#e04546;stop-opacity:1;"
         offset="0"
         id="stop6181" />
      <stop
         style="stop-color:#e04546;stop-opacity:0;"
         offset="1"
         id="stop6183" />
    </linearGradient>
    <linearGradient
       id="linearGradient4728"
       osb:paint="solid">
      <stop
         style="stop-color:#e04546;stop-opacity:1;"
         offset="0"
         id="stop4726" />
    </linearGradient>
    <linearGradient
       inkscape:collect="always"
       xlink:href="#linearGradient6185"
       id="linearGradient6189"
       x1="15"
       y1="81.965599"
       x2="129.12132"
       y2="81.965599"
       gradientUnits="userSpaceOnUse"
       gradientTransform="matrix(0.62892781,0,0,0.57430257,132.76706,47.905744)" />
  </defs>
  <sodipodi:namedview
     pagecolor="#ffffff"
     bordercolor="#666666"
     borderopacity="1"
     objecttolerance="10"
     gridtolerance="10"
     guidetolerance="10"
     inkscape:pageopacity="0"
     inkscape:pageshadow="2"
     inkscape:window-width="1366"
     inkscape:window-height="705"
     id="namedview3734"
     showgrid="false"
     inkscape:zoom="1.4142136"
     inkscape:cx="30.901034"
     inkscape:cy="102.21525"
     inkscape:window-x="-8"
     inkscape:window-y="-8"
     inkscape:window-maximized="1"
     inkscape:current-layer="svg3732" />
  <rect
     style="opacity:1;fill:#5e5580;fill-opacity:1;stroke:none;stroke-width:2;stroke-miterlimit:4;stroke-dasharray:none;stroke-opacity:0.81407034"
     id="rect6195"
     width="321.02649"
     height="240.41631"
     x="0.70710677"
     y="0.29080212" />
  <g
     inkscape:groupmode="layer"
     id="layer2"
     inkscape:label="Layer 1" />
  <path
     style="opacity:1;fill:#f40a37;fill-opacity:1;stroke:url(#linearGradient6189);stroke-width:1.20198989;stroke-miterlimit:4;stroke-dasharray:none;stroke-opacity:0.81407034"
     d="m 160.75435,68.293485 c -9.89938,0 -17.92444,8.99935 -17.92444,20.100595 0.01,9.1438 7.44731,14.91461 12.74678,20.67584 5.98974,4.29271 10.72992,8.22885 21.21532,12.55295 9.54432,-2.88053 14.64261,-6.3893 21.32821,-11.34699 4.53975,-3.75391 15.2239,-11.93221 15.22591,-21.67876 0,-11.101247 -8.02505,-20.100586 -17.92446,-20.100586 -7.35808,0.0084 -15.29854,4.854995 -17.99459,12.532562 -2.69768,-7.682241 -9.31015,-12.733227 -16.67273,-12.735611 z"
     id="path4699"
     inkscape:connector-curvature="0"
     sodipodi:nodetypes="ccccccccc" />
  <path
     id="path3802"
     style="fill:#e9c6af;stroke-width:0.35954583"
     d="m 224.00204,91.7703 -6.90048,1.526575 c -16.5422,7.739075 -27.15214,11.300645 -46.57617,15.634765 -3.39843,0.75829 -3.55964,0.83663 -4.04492,1.99805 -0.27797,0.66529 -1.07594,1.59098 -1.07594,2.98924 0,2.45183 0.62093,3.35823 1.95289,4.78615 1.03446,1.10899 1.64243,1.47397 2.42578,1.45117 0.57522,-0.0167 3.44173,-0.77433 6.36914,-1.68359 2.92741,-0.90926 5.46255,-1.56812 5.63282,-1.46289 0.17026,0.10523 0.36338,0.033 0.42968,-0.16016 0.0663,-0.19316 0.52516,-0.39587 1.01954,-0.45117 0.49437,-0.0553 0.97923,-0.19819 1.07812,-0.31836 0.36698,-0.44604 36.47506,-11.84136 36.94727,-11.66016 0.26992,0.10357 0.39975,0.33728 0.28711,0.51953 -0.11269,0.18226 -0.0727,0.38484 0.0898,0.45117 0.34912,0.14246 7.6801,16.41185 7.75,17.19922 0.0877,0.9882 1.6507,2.00079 4.73047,3.06836 1.39193,0.48251 2.52314,0.96912 2.88476,1.21875 0.24087,0.003 0.4898,0.0398 0.66993,0.19922 0.76082,-0.0673 5.1321,1.29813 6.04882,1.86719 0.0696,0.025 0.1391,0.0495 0.20899,0.0742 0.0446,-0.002 0.10056,0.006 0.13867,0.01 0.0884,0.01 0.17508,0.034 0.26172,0.0547 0.13828,0.0476 0.23178,0.07 0.32226,0.0801 0.10885,-0.0266 0.20788,-0.0297 0.28125,0 0.28937,-0.0198 0.20008,-0.013 0.63672,0.2207 -0.13003,-0.13665 0.19108,-0.0166 0.35352,0.0293 0.12206,0.0736 0.0813,0.0479 0.10742,0.0625 0.12109,0.0908 0.25315,0.16785 0.36328,0.27148 0.0273,0.0256 0.0417,0.0617 0.0586,0.0957 0.002,4.7e-4 0.005,-4.8e-4 0.008,0 -4.9e-4,-0.003 -0.0121,-0.0168 -0.008,-0.0137 0.006,0.004 0.01,0.0109 0.0156,0.0156 0.0998,0.0191 0.19891,0.042 0.29687,0.0684 0.71452,-0.0214 2.42435,0.47665 2.8711,0.83789 0.0665,0.01 0.1333,0.0177 0.19922,0.0312 0.0865,0.0178 0.13882,0.0699 0.2207,0.0449 0.46304,-0.0303 0.90208,0.2158 1.26953,0.46875 0.003,-0.0164 -0.0277,-0.0319 -0.0547,-0.0449 0.0897,0.0375 0.18033,0.0764 0.26954,0.11523 0.001,7e-5 0.003,-6e-5 0.004,0 -0.008,-0.004 -0.012,-0.006 -0.0176,-0.0293 0.0403,0.0143 0.0807,0.0287 0.1211,0.043 0.83553,0.0819 2.49753,0.58165 3.33984,0.98828 0.0908,0.0177 0.17987,0.0352 0.27734,0.0625 0.28659,0.0803 0.0929,0.0492 0.26954,0.0723 0.48876,0.21061 0.52137,0.17094 0.55468,0.4043 1.32174,0.24678 12.21575,3.43911 25.36133,7.44141 33.74594,10.27428 38.00518,11.52997 38.26172,11.27343 0.12019,-0.1202 0.34394,-4.07129 0.49609,-8.78125 l 0.27735,-8.56445 0.002,9.25781 c 0.003,9.193 -0.002,9.25933 -0.76172,9.29492 -0.68728,0.0322 -0.67295,0.0655 0.13477,0.32422 0.49438,0.15833 0.93888,0.30257 0.98828,0.32227 0.0494,0.0197 0.0784,-6.88015 0.0645,-15.33399 -0.0139,-8.45382 -0.13512,-15.11119 -0.26953,-14.79492 -0.21281,0.50074 -1.056,0.32401 -6.53515,-1.35742 -3.46063,-1.06199 -21.66295,-6.64458 -40.44922,-12.40625 l -34.15821,-10.474608 -7.83984,-4.478516 z m 13.63468,35.28439 c 0.009,0.0117 0.0107,0.0104 0.0195,0.0215 0.003,-3e-4 0.007,2.7e-4 0.01,0 -0.0155,-0.0125 -0.0196,-0.0143 -0.0293,-0.0215 z m 8.84766,2.83789 c 0.006,0.0108 0.0123,0.0213 0.0195,0.0312 0.007,0.009 -0.006,-0.015 -0.0156,-0.0293 -0.001,-5.7e-4 -0.003,-10e-4 -0.004,-0.002 z m 0.0469,0.0195 c 0.0118,0.0137 0.0249,0.0259 0.0371,0.0391 -0.0109,-0.0125 -0.0193,-0.0281 -0.0332,-0.0371 -0.001,-7.8e-4 -0.003,-0.001 -0.004,-0.002 z"
     inkscape:connector-curvature="0"
     sodipodi:nodetypes="ccccsccscscccccccccccccccccccccccccccccccccccccsccccccsscsccccccccccccccccccc" />
  <path
     id="path3804"
     style="fill:#e9c6af;stroke-width:0.35954583"
     d="m 139.14453,102.25391 c -0.0569,0.0378 -0.0305,0.0216 -0.0176,0.0137 0.002,-0.006 -2.2e-4,0.002 0.0137,-0.008 0.002,-10e-4 0.001,-10e-4 0,0 z m -0.0176,0.0137 c 0.0107,-0.007 0.006,-0.005 -0.0156,0.01 -0.0138,0.004 -0.0269,0.0101 -0.041,0.0137 -0.002,5.2e-4 -0.006,-3e-5 -0.006,-0.002 -0.0124,0.004 -0.0247,0.007 -0.0371,0.0117 -0.003,-5.2e-4 -0.005,-0.003 -0.008,-0.002 -0.0209,0.007 -0.0436,0.0194 -0.0664,0.0137 -0.002,-4.5e-4 -0.007,0.002 -0.006,0 0.0108,-0.007 0.009,-0.006 -0.0137,0.01 -0.0144,0.005 -0.0283,0.0118 -0.043,0.0156 -0.003,8.6e-4 -0.0121,5.6e-4 -0.01,-0.002 0.002,-0.002 0.005,-0.004 0.008,-0.006 0.001,-0.002 0.003,-0.004 0.004,-0.006 -0.004,0.002 -0.008,0.004 -0.0117,0.006 l -0.002,0.002 c -0.002,0.002 -0.003,0.006 -0.006,0.008 -0.0113,0.005 -0.0149,0.003 -0.0215,0.006 -0.0138,0.007 -0.0264,0.0149 -0.0449,0.0117 -0.006,-0.003 -0.0427,0.0103 -0.0488,0.0117 -0.003,5e-4 0.008,-0.002 0.01,-0.004 0.005,-0.003 0.008,-0.008 0.0117,-0.0117 -0.0186,0.0192 -0.0437,0.031 -0.0703,0.0293 -0.008,-5.1e-4 -0.0129,-0.002 -0.0156,-0.002 l -0.002,0.002 c -0.0132,0.005 -0.0273,0.005 -0.041,0.006 -0.0351,0.0183 -0.0469,0.0352 -0.0957,0.0547 -2.2266,0.89186 -4.06182,4.16068 -4.55664,8.12109 l 0.34891,1.81922 3.84054,2.37024 c 3.71432,1.77361 41.07053,17.87347 49.90039,21.50586 l 2.66797,0.37695 4.34375,-0.82227 c 4.60229,-1.63455 28.44166,-10.34846 31.9375,-11.67383 1.38566,-0.52531 3.59375,-1.23762 3.59375,-1.64257 0,-0.3323 -0.53011,-3.90973 -2.42188,-8.25977 -1.89177,-4.35006 -4.11439,-8.86244 -4.31836,-9.40625 -0.45157,-1.20408 -2.56368,-0.69733 -5.92968,0.39844 -3.99445,1.30035 -37.98666,12.12028 -42.83399,13.63476 -2.2989,0.71826 -4.68208,1.30664 -5.29687,1.30665 -1.59004,0 -3.07885,-1.48842 -4.65235,-4.65235 l -0.17968,-2.62305 -13.19532,-5.22265 c -6.19741,-2.66037 -11.29113,-4.92884 -12.10351,-5.37891 -5.7e-4,-3.1e-4 -0.003,3.2e-4 -0.004,0 -0.004,-2e-4 -0.009,-0.002 -0.0137,-0.002 -0.007,-0.002 -0.0128,-0.002 -0.0195,-0.004 -0.003,-10e-4 -0.0109,-6e-4 -0.01,-0.004 0.002,-0.004 0.0157,-0.002 0.0117,-0.002 -0.0215,-8.1e-4 -0.0429,0.002 -0.0625,-0.01 4.8e-4,-0.003 -0.0593,-0.0183 -0.0195,-0.0137 0.007,8.6e-4 -0.0308,-8.5e-4 -0.0234,0 h -0.0684 -0.0723 c -0.0241,0 -0.0482,-2e-5 -0.0723,0 -0.0262,3e-5 -0.0519,2.4e-4 -0.0781,0 -0.0244,2e-5 -0.0498,0.002 -0.0742,0 -0.004,-4.1e-4 -0.0119,-0.003 -0.0156,-0.004 -0.0174,-0.003 -0.0319,0.0245 -0.0508,0.0117 z"
     inkscape:connector-curvature="0"
     sodipodi:nodetypes="cccccccccccccccccccsccccccccccccccccccscccsccccccccccccccscccccc" />
  <path
     style="fill:#f4e3d7;stroke:#a14546;stroke-width:1px;stroke-linecap:butt;stroke-linejoin:miter;stroke-opacity:0.81407034"
     d="m 164.99718,112.89664 c 1.5223,2.4591 1.81522,4.61085 4.6009,7.3858 18.01552,-3.40751 34.23729,-9.90521 51.35593,-16.02335 -17.65796,4.92165 -29.05692,10.71837 -51.35593,16.02335 -3.3015,-1.5337 -3.9571,-5.41116 -4.6009,-7.3858 z"
     id="path4673"
     inkscape:connector-curvature="0"
     sodipodi:nodetypes="ccccc" />
</svg>
